<svg width="1200" height="50" viewBox="0 0 1200 50" xmlns="http://www.w3.org/2000/svg">
  <g fill="#1a1a1a">
    <!-- Elemento central da vinha -->
    <path d="M600,5 C620,5 640,45 660,45 C680,45 700,25 720,25 C740,25 760,45 780,45 C800,45 820,15 840,15 C860,15 880,35 900,35 C920,35 940,15 960,15 C980,15 1000,45 1020,45 C1040,45 1060,25 1080,25 C1100,25 1120,45 1140,45 C1160,45 1180,15 1200,15 M0,5 C20,5 40,45 60,45 C80,45 100,25 120,25 C140,25 160,45 180,45 C200,45 220,15 240,15 C260,15 280,35 300,35 C320,35 340,15 360,15 C380,15 400,45 420,45 C440,45 460,25 480,25 C500,25 520,45 540,45 C560,45 580,15 600,15" stroke="#c0a080" stroke-width="1.5" fill="none"/>
    
    <!-- Cachos de uva estilizados -->
    <circle cx="600" cy="25" r="4"/>
    <circle cx="610" cy="30" r="4"/>
    <circle cx="590" cy="30" r="4"/>
    <circle cx="600" cy="35" r="4"/>
    
    <circle cx="720" cy="35" r="4"/>
    <circle cx="730" cy="40" r="4"/>
    <circle cx="710" cy="40" r="4"/>
    <circle cx="720" cy="45" r="4"/>
    
    <circle cx="480" cy="35" r="4"/>
    <circle cx="490" cy="40" r="4"/>
    <circle cx="470" cy="40" r="4"/>
    <circle cx="480" cy="45" r="4"/>
    
    <circle cx="900" cy="15" r="4"/>
    <circle cx="910" cy="20" r="4"/>
    <circle cx="890" cy="20" r="4"/>
    <circle cx="900" cy="25" r="4"/>
    
    <circle cx="300" cy="15" r="4"/>
    <circle cx="310" cy="20" r="4"/>
    <circle cx="290" cy="20" r="4"/>
    <circle cx="300" cy="25" r="4"/>
    
    <circle cx="1080" cy="30" r="4"/>
    <circle cx="1090" cy="35" r="4"/>
    <circle cx="1070" cy="35" r="4"/>
    <circle cx="1080" cy="40" r="4"/>
    
    <!-- Folhas de videira estilizadas -->
    <path d="M630,15 C635,10 645,10 650,15 C655,20 655,30 650,35 C645,40 635,40 630,35 C625,30 625,20 630,15 Z" />
    <path d="M650,18 L655,10 M650,18 L658,12 M650,18 L660,18" stroke="#1a1a1a" stroke-width="1"/>
    
    <path d="M370,25 C375,20 385,20 390,25 C395,30 395,40 390,45 C385,50 375,50 370,45 C365,40 365,30 370,25 Z" />
    <path d="M390,28 L395,20 M390,28 L398,22 M390,28 L400,28" stroke="#1a1a1a" stroke-width="1"/>
    
    <path d="M930,35 C935,30 945,30 950,35 C955,40 955,50 950,55 C945,60 935,60 930,55 C925,50 925,40 930,35 Z" />
    <path d="M950,38 L955,30 M950,38 L958,32 M950,38 L960,38" stroke="#1a1a1a" stroke-width="1"/>
  </g>
</svg>